<?xml version="1.0" standalone="no"?>
<!DOCTYPE svg PUBLIC "-//W3C//DTD SVG 20010904//EN"
 "http://www.w3.org/TR/2001/REC-SVG-20010904/DTD/svg10.dtd">
<svg version="1.0" xmlns="http://www.w3.org/2000/svg"
 width="16.000000pt" height="16.000000pt" viewBox="0 0 16.000000 16.000000"
 preserveAspectRatio="xMidYMid meet">
<metadata>
Created by potrace 1.11, written by Peter Selinger 2001-2013
</metadata>
<g transform="translate(0.000000,16.000000) scale(0.002909,-0.002909)"
fill="#000000" stroke="none">
<path d="M0 2750 l0 -2750 2750 0 2750 0 0 2750 0 2750 -2750 0 -2750 0 0
-2750z m2254 2470 c469 -81 818 -352 1036 -805 130 -270 194 -560 207 -930 19
-569 -129 -1082 -413 -1430 -24 -30 -44 -57 -44 -59 0 -3 19 -6 43 -8 l42 -3
3 -97 3 -96 68 67 c124 123 274 182 459 182 109 0 191 -18 266 -59 49 -27 159
-125 188 -169 l15 -23 54 51 c158 146 296 201 509 201 160 -1 289 -43 389
-128 56 -48 117 -144 141 -221 19 -63 20 -92 20 -754 l0 -690 -152 3 -153 3
-5 645 -5 645 -23 49 c-49 106 -102 147 -217 164 -181 29 -363 -58 -440 -208
-49 -97 -49 -92 -55 -710 l-5 -585 -150 0 -150 0 -6 625 c-4 522 -8 633 -21
675 -40 130 -103 186 -230 204 -211 29 -385 -75 -460 -274 -22 -59 -23 -70
-28 -645 l-5 -585 -150 0 -150 0 -3 773 c-1 424 -5 772 -8 772 -3 0 -24 -13
-47 -28 -321 -217 -784 -293 -1217 -200 -242 51 -453 170 -628 353 l-82 85 0
-868 c0 -662 -3 -871 -12 -880 -17 -17 -559 -17 -576 0 -17 17 -17 4849 0
4866 18 18 561 17 577 -1 7 -9 12 -89 13 -222 l3 -209 39 54 c127 177 337 339
541 415 76 29 235 63 345 75 123 13 337 4 474 -20z m2331 20 c290 -33 497
-169 600 -395 46 -100 60 -165 59 -285 0 -255 -85 -432 -281 -590 -99 -80
-158 -118 -275 -176 -285 -143 -496 -278 -565 -363 -42 -52 -92 -139 -107
-188 l-7 -23 618 -2 618 -3 3 -147 3 -148 -806 0 c-783 0 -805 1 -805 19 0 10
5 64 10 120 30 288 124 471 334 653 102 88 178 138 354 232 377 202 495 301
544 461 70 224 -24 435 -229 516 -50 20 -76 23 -183 23 -156 0 -211 -18 -300
-101 -94 -86 -150 -232 -150 -388 l0 -66 -157 3 -158 3 -3 76 c-3 95 28 256
68 351 131 308 429 461 815 418z"/>
<path d="M1715 4678 c-422 -48 -676 -280 -808 -738 -53 -183 -62 -264 -62
-565 0 -324 15 -439 84 -645 110 -329 259 -496 522 -585 326 -111 706 -67 954
110 311 221 488 765 436 1340 -45 493 -233 839 -535 985 -111 53 -223 84 -361
100 -102 11 -118 11 -230 -2z"/>
</g>
</svg>
